<mxfile host="app.diagrams.net" modified="2024-07-03T00:47:00.871Z" agent="Mozilla/5.0 (X11; Linux x86_64; rv:127.0) Gecko/20100101 Firefox/127.0" etag="_8FbWljILJLSExUvjljE" version="24.6.4" type="github">
  <diagram name="Page-1" id="nxbbfwsY9ipYVMFQbar0">
    <mxGraphModel dx="2213" dy="730" grid="1" gridSize="10" guides="1" tooltips="1" connect="1" arrows="1" fold="1" page="1" pageScale="1" pageWidth="850" pageHeight="1100" math="0" shadow="0">
      <root>
        <mxCell id="0" />
        <mxCell id="1" parent="0" />
        <mxCell id="waT2RRmkpe6hHdSSsflM-8" value="&lt;u&gt;ID&lt;/u&gt;" style="rounded=0;whiteSpace=wrap;html=1;" vertex="1" parent="1">
          <mxGeometry x="40" y="80" width="120" height="60" as="geometry" />
        </mxCell>
        <mxCell id="waT2RRmkpe6hHdSSsflM-10" value="D-ID" style="rounded=0;whiteSpace=wrap;html=1;" vertex="1" parent="1">
          <mxGeometry x="640" y="80" width="120" height="60" as="geometry" />
        </mxCell>
        <mxCell id="waT2RRmkpe6hHdSSsflM-11" value="ADDRESS" style="rounded=0;whiteSpace=wrap;html=1;" vertex="1" parent="1">
          <mxGeometry x="520" y="80" width="120" height="60" as="geometry" />
        </mxCell>
        <mxCell id="waT2RRmkpe6hHdSSsflM-12" value="AGE" style="rounded=0;whiteSpace=wrap;html=1;" vertex="1" parent="1">
          <mxGeometry x="400" y="80" width="120" height="60" as="geometry" />
        </mxCell>
        <mxCell id="waT2RRmkpe6hHdSSsflM-13" value="SNAME" style="rounded=0;whiteSpace=wrap;html=1;" vertex="1" parent="1">
          <mxGeometry x="280" y="80" width="120" height="60" as="geometry" />
        </mxCell>
        <mxCell id="waT2RRmkpe6hHdSSsflM-14" value="FNAME" style="rounded=0;whiteSpace=wrap;html=1;" vertex="1" parent="1">
          <mxGeometry x="160" y="80" width="120" height="60" as="geometry" />
        </mxCell>
        <mxCell id="waT2RRmkpe6hHdSSsflM-33" value="STUDENT" style="text;html=1;align=center;verticalAlign=middle;whiteSpace=wrap;rounded=0;" vertex="1" parent="1">
          <mxGeometry x="-170" y="95" width="180" height="30" as="geometry" />
        </mxCell>
        <mxCell id="waT2RRmkpe6hHdSSsflM-53" value="" style="endArrow=none;dashed=1;html=1;rounded=0;" edge="1" parent="1">
          <mxGeometry width="50" height="50" relative="1" as="geometry">
            <mxPoint x="665" y="125" as="sourcePoint" />
            <mxPoint x="735" y="125" as="targetPoint" />
          </mxGeometry>
        </mxCell>
        <mxCell id="waT2RRmkpe6hHdSSsflM-68" value="&lt;u&gt;ID&lt;/u&gt;" style="rounded=0;whiteSpace=wrap;html=1;" vertex="1" parent="1">
          <mxGeometry x="40" y="200" width="120" height="60" as="geometry" />
        </mxCell>
        <mxCell id="waT2RRmkpe6hHdSSsflM-69" value="TOPIC-ID" style="rounded=0;whiteSpace=wrap;html=1;" vertex="1" parent="1">
          <mxGeometry x="520" y="200" width="120" height="60" as="geometry" />
        </mxCell>
        <mxCell id="waT2RRmkpe6hHdSSsflM-70" value="DISCRIPTION" style="rounded=0;whiteSpace=wrap;html=1;" vertex="1" parent="1">
          <mxGeometry x="400" y="200" width="120" height="60" as="geometry" />
        </mxCell>
        <mxCell id="waT2RRmkpe6hHdSSsflM-71" value="DUARATION" style="rounded=0;whiteSpace=wrap;html=1;" vertex="1" parent="1">
          <mxGeometry x="280" y="200" width="120" height="60" as="geometry" />
        </mxCell>
        <mxCell id="waT2RRmkpe6hHdSSsflM-72" value="NAME" style="rounded=0;whiteSpace=wrap;html=1;" vertex="1" parent="1">
          <mxGeometry x="160" y="200" width="120" height="60" as="geometry" />
        </mxCell>
        <mxCell id="waT2RRmkpe6hHdSSsflM-73" value="COURSE" style="text;html=1;align=center;verticalAlign=middle;whiteSpace=wrap;rounded=0;" vertex="1" parent="1">
          <mxGeometry x="-170" y="215" width="180" height="30" as="geometry" />
        </mxCell>
        <mxCell id="waT2RRmkpe6hHdSSsflM-74" value="" style="endArrow=none;dashed=1;html=1;rounded=0;" edge="1" parent="1">
          <mxGeometry width="50" height="50" relative="1" as="geometry">
            <mxPoint x="545" y="245" as="sourcePoint" />
            <mxPoint x="615" y="245" as="targetPoint" />
          </mxGeometry>
        </mxCell>
        <mxCell id="waT2RRmkpe6hHdSSsflM-75" value="&lt;u&gt;ID&lt;/u&gt;" style="rounded=0;whiteSpace=wrap;html=1;" vertex="1" parent="1">
          <mxGeometry x="40" y="320" width="120" height="60" as="geometry" />
        </mxCell>
        <mxCell id="waT2RRmkpe6hHdSSsflM-76" value="NAME" style="rounded=0;whiteSpace=wrap;html=1;" vertex="1" parent="1">
          <mxGeometry x="160" y="320" width="120" height="60" as="geometry" />
        </mxCell>
        <mxCell id="waT2RRmkpe6hHdSSsflM-77" value="TOPIC" style="text;html=1;align=center;verticalAlign=middle;whiteSpace=wrap;rounded=0;" vertex="1" parent="1">
          <mxGeometry x="-170" y="335" width="180" height="30" as="geometry" />
        </mxCell>
        <mxCell id="waT2RRmkpe6hHdSSsflM-78" value="&lt;u&gt;ID&lt;/u&gt;" style="rounded=0;whiteSpace=wrap;html=1;" vertex="1" parent="1">
          <mxGeometry x="40" y="440" width="120" height="60" as="geometry" />
        </mxCell>
        <mxCell id="waT2RRmkpe6hHdSSsflM-113" style="edgeStyle=orthogonalEdgeStyle;rounded=0;orthogonalLoop=1;jettySize=auto;html=1;entryX=0;entryY=0.5;entryDx=0;entryDy=0;" edge="1" parent="1" source="waT2RRmkpe6hHdSSsflM-79" target="waT2RRmkpe6hHdSSsflM-88">
          <mxGeometry relative="1" as="geometry">
            <Array as="points">
              <mxPoint x="700" y="420" />
              <mxPoint x="20" y="420" />
              <mxPoint x="20" y="600" />
            </Array>
          </mxGeometry>
        </mxCell>
        <mxCell id="waT2RRmkpe6hHdSSsflM-79" value="D-ID" style="rounded=0;whiteSpace=wrap;html=1;" vertex="1" parent="1">
          <mxGeometry x="640" y="440" width="120" height="60" as="geometry" />
        </mxCell>
        <mxCell id="waT2RRmkpe6hHdSSsflM-80" value="ADDRESS" style="rounded=0;whiteSpace=wrap;html=1;" vertex="1" parent="1">
          <mxGeometry x="520" y="440" width="120" height="60" as="geometry" />
        </mxCell>
        <mxCell id="waT2RRmkpe6hHdSSsflM-81" value="SALARY" style="rounded=0;whiteSpace=wrap;html=1;" vertex="1" parent="1">
          <mxGeometry x="400" y="440" width="120" height="60" as="geometry" />
        </mxCell>
        <mxCell id="waT2RRmkpe6hHdSSsflM-82" value="BONUS" style="rounded=0;whiteSpace=wrap;html=1;" vertex="1" parent="1">
          <mxGeometry x="280" y="440" width="120" height="60" as="geometry" />
        </mxCell>
        <mxCell id="waT2RRmkpe6hHdSSsflM-83" value="NAME" style="rounded=0;whiteSpace=wrap;html=1;" vertex="1" parent="1">
          <mxGeometry x="160" y="440" width="120" height="60" as="geometry" />
        </mxCell>
        <mxCell id="waT2RRmkpe6hHdSSsflM-84" value="INSTRUCTOR" style="text;html=1;align=center;verticalAlign=middle;whiteSpace=wrap;rounded=0;" vertex="1" parent="1">
          <mxGeometry x="-170" y="455" width="180" height="30" as="geometry" />
        </mxCell>
        <mxCell id="waT2RRmkpe6hHdSSsflM-85" value="" style="endArrow=none;dashed=1;html=1;rounded=0;" edge="1" parent="1">
          <mxGeometry width="50" height="50" relative="1" as="geometry">
            <mxPoint x="665" y="485" as="sourcePoint" />
            <mxPoint x="735" y="485" as="targetPoint" />
          </mxGeometry>
        </mxCell>
        <mxCell id="waT2RRmkpe6hHdSSsflM-86" value="HOUR-RATE" style="rounded=0;whiteSpace=wrap;html=1;" vertex="1" parent="1">
          <mxGeometry x="760" y="440" width="120" height="60" as="geometry" />
        </mxCell>
        <mxCell id="waT2RRmkpe6hHdSSsflM-88" value="&lt;u&gt;D-ID&lt;/u&gt;" style="rounded=0;whiteSpace=wrap;html=1;" vertex="1" parent="1">
          <mxGeometry x="40" y="570" width="120" height="60" as="geometry" />
        </mxCell>
        <mxCell id="waT2RRmkpe6hHdSSsflM-89" value="HIRING-DATE" style="rounded=0;whiteSpace=wrap;html=1;" vertex="1" parent="1">
          <mxGeometry x="400" y="570" width="120" height="60" as="geometry" />
        </mxCell>
        <mxCell id="waT2RRmkpe6hHdSSsflM-90" value="MANAGER-SSD" style="rounded=0;whiteSpace=wrap;html=1;" vertex="1" parent="1">
          <mxGeometry x="280" y="570" width="120" height="60" as="geometry" />
        </mxCell>
        <mxCell id="waT2RRmkpe6hHdSSsflM-91" value="NAME" style="rounded=0;whiteSpace=wrap;html=1;" vertex="1" parent="1">
          <mxGeometry x="160" y="570" width="120" height="60" as="geometry" />
        </mxCell>
        <mxCell id="waT2RRmkpe6hHdSSsflM-92" value="DEPARTMENT" style="text;html=1;align=center;verticalAlign=middle;whiteSpace=wrap;rounded=0;" vertex="1" parent="1">
          <mxGeometry x="-170" y="585" width="180" height="30" as="geometry" />
        </mxCell>
        <mxCell id="waT2RRmkpe6hHdSSsflM-93" value="" style="endArrow=none;dashed=1;html=1;rounded=0;" edge="1" parent="1">
          <mxGeometry width="50" height="50" relative="1" as="geometry">
            <mxPoint x="302" y="611" as="sourcePoint" />
            <mxPoint x="372" y="611" as="targetPoint" />
          </mxGeometry>
        </mxCell>
        <mxCell id="waT2RRmkpe6hHdSSsflM-114" style="edgeStyle=orthogonalEdgeStyle;rounded=0;orthogonalLoop=1;jettySize=auto;html=1;entryX=0.5;entryY=0;entryDx=0;entryDy=0;" edge="1" parent="1" source="waT2RRmkpe6hHdSSsflM-94" target="waT2RRmkpe6hHdSSsflM-8">
          <mxGeometry relative="1" as="geometry">
            <mxPoint y="17" as="targetPoint" />
            <Array as="points">
              <mxPoint x="100" y="800" />
              <mxPoint x="-210" y="800" />
              <mxPoint x="-210" y="50" />
              <mxPoint x="100" y="50" />
            </Array>
          </mxGeometry>
        </mxCell>
        <mxCell id="waT2RRmkpe6hHdSSsflM-94" value="S-ID" style="rounded=0;whiteSpace=wrap;html=1;" vertex="1" parent="1">
          <mxGeometry x="40" y="720" width="120" height="60" as="geometry" />
        </mxCell>
        <mxCell id="waT2RRmkpe6hHdSSsflM-95" value="GRADE" style="rounded=0;whiteSpace=wrap;html=1;" vertex="1" parent="1">
          <mxGeometry x="280" y="720" width="120" height="60" as="geometry" />
        </mxCell>
        <mxCell id="waT2RRmkpe6hHdSSsflM-115" style="edgeStyle=orthogonalEdgeStyle;rounded=0;orthogonalLoop=1;jettySize=auto;html=1;entryX=0;entryY=0;entryDx=0;entryDy=0;" edge="1" parent="1" source="waT2RRmkpe6hHdSSsflM-96" target="waT2RRmkpe6hHdSSsflM-68">
          <mxGeometry relative="1" as="geometry">
            <mxPoint x="-160" y="160" as="targetPoint" />
            <Array as="points">
              <mxPoint x="220" y="690" />
              <mxPoint x="-160" y="690" />
              <mxPoint x="-160" y="200" />
            </Array>
          </mxGeometry>
        </mxCell>
        <mxCell id="waT2RRmkpe6hHdSSsflM-96" value="C-ID" style="rounded=0;whiteSpace=wrap;html=1;" vertex="1" parent="1">
          <mxGeometry x="160" y="720" width="120" height="60" as="geometry" />
        </mxCell>
        <mxCell id="waT2RRmkpe6hHdSSsflM-97" value="TAKE" style="text;html=1;align=center;verticalAlign=middle;whiteSpace=wrap;rounded=0;" vertex="1" parent="1">
          <mxGeometry x="-170" y="735" width="180" height="30" as="geometry" />
        </mxCell>
        <mxCell id="waT2RRmkpe6hHdSSsflM-99" value="C-ID" style="rounded=0;whiteSpace=wrap;html=1;" vertex="1" parent="1">
          <mxGeometry x="680" y="710" width="120" height="60" as="geometry" />
        </mxCell>
        <mxCell id="waT2RRmkpe6hHdSSsflM-100" value="EVAL" style="rounded=0;whiteSpace=wrap;html=1;" vertex="1" parent="1">
          <mxGeometry x="920" y="710" width="120" height="60" as="geometry" />
        </mxCell>
        <mxCell id="waT2RRmkpe6hHdSSsflM-101" value="INS-ID" style="rounded=0;whiteSpace=wrap;html=1;" vertex="1" parent="1">
          <mxGeometry x="800" y="710" width="120" height="60" as="geometry" />
        </mxCell>
        <mxCell id="waT2RRmkpe6hHdSSsflM-102" value="TEACH" style="text;html=1;align=center;verticalAlign=middle;whiteSpace=wrap;rounded=0;" vertex="1" parent="1">
          <mxGeometry x="470" y="725" width="180" height="30" as="geometry" />
        </mxCell>
        <mxCell id="waT2RRmkpe6hHdSSsflM-104" value="" style="endArrow=none;dashed=1;html=1;rounded=0;" edge="1" parent="1">
          <mxGeometry width="50" height="50" relative="1" as="geometry">
            <mxPoint x="65" y="760" as="sourcePoint" />
            <mxPoint x="135" y="760" as="targetPoint" />
          </mxGeometry>
        </mxCell>
        <mxCell id="waT2RRmkpe6hHdSSsflM-105" value="" style="endArrow=none;dashed=1;html=1;rounded=0;" edge="1" parent="1">
          <mxGeometry width="50" height="50" relative="1" as="geometry">
            <mxPoint x="185" y="760" as="sourcePoint" />
            <mxPoint x="255" y="760" as="targetPoint" />
          </mxGeometry>
        </mxCell>
        <mxCell id="waT2RRmkpe6hHdSSsflM-106" value="" style="endArrow=none;dashed=1;html=1;rounded=0;" edge="1" parent="1">
          <mxGeometry width="50" height="50" relative="1" as="geometry">
            <mxPoint x="706" y="752" as="sourcePoint" />
            <mxPoint x="776" y="752" as="targetPoint" />
          </mxGeometry>
        </mxCell>
        <mxCell id="waT2RRmkpe6hHdSSsflM-107" value="" style="endArrow=none;dashed=1;html=1;rounded=0;" edge="1" parent="1">
          <mxGeometry width="50" height="50" relative="1" as="geometry">
            <mxPoint x="826" y="752" as="sourcePoint" />
            <mxPoint x="896" y="752" as="targetPoint" />
          </mxGeometry>
        </mxCell>
        <mxCell id="waT2RRmkpe6hHdSSsflM-108" value="" style="endArrow=none;html=1;rounded=0;" edge="1" parent="1">
          <mxGeometry width="50" height="50" relative="1" as="geometry">
            <mxPoint x="61" y="770" as="sourcePoint" />
            <mxPoint x="271" y="770" as="targetPoint" />
          </mxGeometry>
        </mxCell>
        <mxCell id="waT2RRmkpe6hHdSSsflM-109" value="" style="endArrow=none;html=1;rounded=0;" edge="1" parent="1">
          <mxGeometry width="50" height="50" relative="1" as="geometry">
            <mxPoint x="698" y="760" as="sourcePoint" />
            <mxPoint x="908" y="760" as="targetPoint" />
          </mxGeometry>
        </mxCell>
        <mxCell id="waT2RRmkpe6hHdSSsflM-112" value="" style="endArrow=classic;html=1;rounded=0;exitX=1;exitY=0.5;exitDx=0;exitDy=0;entryX=0.5;entryY=0;entryDx=0;entryDy=0;" edge="1" parent="1" source="waT2RRmkpe6hHdSSsflM-10" target="waT2RRmkpe6hHdSSsflM-88">
          <mxGeometry width="50" height="50" relative="1" as="geometry">
            <mxPoint x="400" y="460" as="sourcePoint" />
            <mxPoint x="450" y="410" as="targetPoint" />
            <Array as="points">
              <mxPoint x="950" y="110" />
              <mxPoint x="950" y="550" />
              <mxPoint x="110" y="550" />
            </Array>
          </mxGeometry>
        </mxCell>
      </root>
    </mxGraphModel>
  </diagram>
</mxfile>
